<?xml version="1.0" ?><!DOCTYPE svg  PUBLIC '-//W3C//DTD SVG 1.1//EN'  'http://www.w3.org/Graphics/SVG/1.1/DTD/svg11.dtd'><svg enable-background="new 0 0 500 500" height="500px" id="Layer_1" version="1.1" viewBox="0 0 500 500" width="500px" xml:space="preserve" xmlns="http://www.w3.org/2000/svg" xmlns:xlink="http://www.w3.org/1999/xlink"><path clip-rule="evenodd" d="M31.949,86.461c77.136-34.976,168.711-54.512,258.935-54.512  c29.253,0,58.055,1.366,86.134,5.997c10.985,1.819,25.253,5.91,31.427,10.63c8.636,6.637,14.18,17.08,14.18,28.8  c0,10.808-4.718,20.62-12.261,27.257h3.175c20.079,0,36.341,16.263,36.341,36.342s-16.262,36.342-36.341,36.342h18.173  c20.078,0,36.34,16.262,36.34,36.341c0,20.079-16.262,36.342-36.34,36.342c20.078,0,36.34,16.262,36.34,36.341  c0,20.078-16.262,36.344-36.34,36.344H268.723c-12.549,0-22.715,10.176-22.715,22.711l11.435,75.506  c1.094,3.446,1.644,7.084,1.644,10.81c0,20.078-16.264,36.34-36.342,36.34c-16.804,0-30.984-11.443-35.074-26.891l-1.544-5.174  C162.782,361.662,109.903,293.787,31.949,250V86.461z" fill="#010101" fill-rule="evenodd"/></svg>